<mxfile host="app.diagrams.net" modified="2022-10-02T05:11:14.158Z" agent="5.0 (Macintosh; Intel Mac OS X 10_15_7) AppleWebKit/537.36 (KHTML, like Gecko) Chrome/105.0.0.0 Safari/537.36" etag="tJobosqhLAvAxTQl1vQy" version="20.3.7" type="github">
  <diagram id="SaCp-EZlsrpQeVZZf6bi" name="Page-1">
    <mxGraphModel dx="1636" dy="521" grid="1" gridSize="10" guides="1" tooltips="1" connect="1" arrows="1" fold="1" page="1" pageScale="1" pageWidth="850" pageHeight="1100" math="0" shadow="0">
      <root>
        <mxCell id="0" />
        <mxCell id="1" parent="0" />
        <mxCell id="as-h8g3W3oBw8S-Jlq9h-1" value="" style="rounded=1;whiteSpace=wrap;html=1;" parent="1" vertex="1">
          <mxGeometry x="80" y="80" width="280" height="300" as="geometry" />
        </mxCell>
        <mxCell id="as-h8g3W3oBw8S-Jlq9h-2" value="函数模板" style="rounded=0;whiteSpace=wrap;html=1;fillColor=#d5e8d4;strokeColor=#82b366;" parent="1" vertex="1">
          <mxGeometry x="80" y="80" width="280" height="40" as="geometry" />
        </mxCell>
        <mxCell id="as-h8g3W3oBw8S-Jlq9h-3" value="" style="rounded=1;whiteSpace=wrap;html=1;" parent="1" vertex="1">
          <mxGeometry x="440" y="80" width="280" height="300" as="geometry" />
        </mxCell>
        <mxCell id="as-h8g3W3oBw8S-Jlq9h-4" value="类模板" style="rounded=0;whiteSpace=wrap;html=1;fillColor=#d5e8d4;strokeColor=#82b366;" parent="1" vertex="1">
          <mxGeometry x="440" y="80" width="280" height="40" as="geometry" />
        </mxCell>
        <mxCell id="as-h8g3W3oBw8S-Jlq9h-5" value="" style="rounded=1;whiteSpace=wrap;html=1;" parent="1" vertex="1">
          <mxGeometry x="80" y="420" width="280" height="300" as="geometry" />
        </mxCell>
        <mxCell id="as-h8g3W3oBw8S-Jlq9h-6" value="成员函数模板" style="rounded=0;whiteSpace=wrap;html=1;fillColor=#d5e8d4;strokeColor=#82b366;" parent="1" vertex="1">
          <mxGeometry x="80" y="420" width="280" height="40" as="geometry" />
        </mxCell>
        <mxCell id="as-h8g3W3oBw8S-Jlq9h-7" value="" style="rounded=1;whiteSpace=wrap;html=1;" parent="1" vertex="1">
          <mxGeometry x="440" y="420" width="280" height="300" as="geometry" />
        </mxCell>
        <mxCell id="as-h8g3W3oBw8S-Jlq9h-8" value="变量模板" style="rounded=0;whiteSpace=wrap;html=1;fillColor=#d5e8d4;strokeColor=#82b366;" parent="1" vertex="1">
          <mxGeometry x="440" y="420" width="280" height="40" as="geometry" />
        </mxCell>
        <mxCell id="as-h8g3W3oBw8S-Jlq9h-9" value="" style="rounded=1;whiteSpace=wrap;html=1;" parent="1" vertex="1">
          <mxGeometry x="80" y="760" width="280" height="300" as="geometry" />
        </mxCell>
        <mxCell id="as-h8g3W3oBw8S-Jlq9h-10" value="别名模板" style="rounded=0;whiteSpace=wrap;html=1;fillColor=#d5e8d4;strokeColor=#82b366;" parent="1" vertex="1">
          <mxGeometry x="80" y="760" width="280" height="40" as="geometry" />
        </mxCell>
        <mxCell id="as-h8g3W3oBw8S-Jlq9h-11" value="" style="rounded=1;whiteSpace=wrap;html=1;" parent="1" vertex="1">
          <mxGeometry x="440" y="760" width="280" height="300" as="geometry" />
        </mxCell>
        <mxCell id="as-h8g3W3oBw8S-Jlq9h-12" value="可变参数模板" style="rounded=0;whiteSpace=wrap;html=1;fillColor=#d5e8d4;strokeColor=#82b366;" parent="1" vertex="1">
          <mxGeometry x="440" y="760" width="280" height="40" as="geometry" />
        </mxCell>
        <mxCell id="as-h8g3W3oBw8S-Jlq9h-13" value="" style="rounded=1;whiteSpace=wrap;html=1;" parent="1" vertex="1">
          <mxGeometry x="80" y="1100" width="280" height="300" as="geometry" />
        </mxCell>
        <mxCell id="as-h8g3W3oBw8S-Jlq9h-14" value="模板参数" style="rounded=0;whiteSpace=wrap;html=1;fillColor=#d5e8d4;strokeColor=#82b366;" parent="1" vertex="1">
          <mxGeometry x="80" y="1100" width="280" height="40" as="geometry" />
        </mxCell>
        <mxCell id="as-h8g3W3oBw8S-Jlq9h-15" value="" style="rounded=1;whiteSpace=wrap;html=1;" parent="1" vertex="1">
          <mxGeometry x="440" y="1100" width="280" height="300" as="geometry" />
        </mxCell>
        <mxCell id="as-h8g3W3oBw8S-Jlq9h-16" value="非类型模板参数" style="rounded=0;whiteSpace=wrap;html=1;fillColor=#d5e8d4;strokeColor=#82b366;" parent="1" vertex="1">
          <mxGeometry x="440" y="1100" width="280" height="40" as="geometry" />
        </mxCell>
        <mxCell id="as-h8g3W3oBw8S-Jlq9h-17" value="" style="rounded=1;whiteSpace=wrap;html=1;" parent="1" vertex="1">
          <mxGeometry x="440" y="1440" width="280" height="300" as="geometry" />
        </mxCell>
        <mxCell id="as-h8g3W3oBw8S-Jlq9h-18" value="编译期编程" style="rounded=0;whiteSpace=wrap;html=1;fillColor=#d5e8d4;strokeColor=#82b366;" parent="1" vertex="1">
          <mxGeometry x="440" y="1440" width="280" height="40" as="geometry" />
        </mxCell>
        <mxCell id="u4Ys3v4neEJpWNCsn4WD-1" value="模板元编程" style="ellipse;whiteSpace=wrap;html=1;" parent="1" vertex="1">
          <mxGeometry x="460" y="1500" width="100" height="50" as="geometry" />
        </mxCell>
        <mxCell id="u4Ys3v4neEJpWNCsn4WD-2" value="偏特化&lt;br&gt;选择路径" style="ellipse;whiteSpace=wrap;html=1;" parent="1" vertex="1">
          <mxGeometry x="590" y="1500" width="100" height="50" as="geometry" />
        </mxCell>
        <mxCell id="u4Ys3v4neEJpWNCsn4WD-3" value="constexpr" style="ellipse;whiteSpace=wrap;html=1;" parent="1" vertex="1">
          <mxGeometry x="460" y="1630" width="100" height="50" as="geometry" />
        </mxCell>
        <mxCell id="u4Ys3v4neEJpWNCsn4WD-4" value="SFINAE" style="ellipse;whiteSpace=wrap;html=1;" parent="1" vertex="1">
          <mxGeometry x="460" y="1565" width="100" height="50" as="geometry" />
        </mxCell>
        <mxCell id="u4Ys3v4neEJpWNCsn4WD-5" value="std::enable_if" style="ellipse;whiteSpace=wrap;html=1;" parent="1" vertex="1">
          <mxGeometry x="590" y="1565" width="100" height="50" as="geometry" />
        </mxCell>
        <mxCell id="u4Ys3v4neEJpWNCsn4WD-6" value="concept&lt;br&gt;requires" style="ellipse;whiteSpace=wrap;html=1;" parent="1" vertex="1">
          <mxGeometry x="590" y="1630" width="100" height="50" as="geometry" />
        </mxCell>
        <mxCell id="u4Ys3v4neEJpWNCsn4WD-7" value="&lt;div&gt;整型类型&lt;/div&gt;" style="ellipse;whiteSpace=wrap;html=1;" parent="1" vertex="1">
          <mxGeometry x="460" y="1160" width="100" height="50" as="geometry" />
        </mxCell>
        <mxCell id="u4Ys3v4neEJpWNCsn4WD-8" value="枚举类型" style="ellipse;whiteSpace=wrap;html=1;" parent="1" vertex="1">
          <mxGeometry x="600" y="1160" width="100" height="50" as="geometry" />
        </mxCell>
        <mxCell id="u4Ys3v4neEJpWNCsn4WD-9" value="（指向对象或函数的）&lt;br&gt;指针类型" style="ellipse;whiteSpace=wrap;html=1;" parent="1" vertex="1">
          <mxGeometry x="450" y="1220" width="180" height="80" as="geometry" />
        </mxCell>
        <mxCell id="u4Ys3v4neEJpWNCsn4WD-10" value="模板参数包" style="ellipse;whiteSpace=wrap;html=1;" parent="1" vertex="1">
          <mxGeometry x="460" y="830" width="100" height="50" as="geometry" />
        </mxCell>
        <mxCell id="u4Ys3v4neEJpWNCsn4WD-11" value="函数参数包" style="ellipse;whiteSpace=wrap;html=1;" parent="1" vertex="1">
          <mxGeometry x="590" y="830" width="100" height="50" as="geometry" />
        </mxCell>
        <mxCell id="u4Ys3v4neEJpWNCsn4WD-12" value="折叠表达式" style="ellipse;whiteSpace=wrap;html=1;" parent="1" vertex="1">
          <mxGeometry x="460" y="900" width="100" height="50" as="geometry" />
        </mxCell>
        <mxCell id="u4Ys3v4neEJpWNCsn4WD-13" value="两阶段&lt;br&gt;编译检查" style="ellipse;whiteSpace=wrap;html=1;" parent="1" vertex="1">
          <mxGeometry x="100" y="140" width="100" height="50" as="geometry" />
        </mxCell>
        <mxCell id="u4Ys3v4neEJpWNCsn4WD-14" value="模板参数推导" style="ellipse;whiteSpace=wrap;html=1;" parent="1" vertex="1">
          <mxGeometry x="230" y="140" width="100" height="50" as="geometry" />
        </mxCell>
        <mxCell id="u4Ys3v4neEJpWNCsn4WD-15" value="函数模板重载" style="ellipse;whiteSpace=wrap;html=1;" parent="1" vertex="1">
          <mxGeometry x="100" y="210" width="100" height="50" as="geometry" />
        </mxCell>
        <mxCell id="u4Ys3v4neEJpWNCsn4WD-16" value="返回类型推导" style="ellipse;whiteSpace=wrap;html=1;" parent="1" vertex="1">
          <mxGeometry x="230" y="210" width="100" height="50" as="geometry" />
        </mxCell>
        <mxCell id="u4Ys3v4neEJpWNCsn4WD-17" value="模板全特化" style="ellipse;whiteSpace=wrap;html=1;" parent="1" vertex="1">
          <mxGeometry x="100" y="280" width="100" height="50" as="geometry" />
        </mxCell>
        <mxCell id="u4Ys3v4neEJpWNCsn4WD-18" value="类模板实例化" style="ellipse;whiteSpace=wrap;html=1;" parent="1" vertex="1">
          <mxGeometry x="470" y="140" width="100" height="50" as="geometry" />
        </mxCell>
        <mxCell id="u4Ys3v4neEJpWNCsn4WD-19" value="类模板特化" style="ellipse;whiteSpace=wrap;html=1;" parent="1" vertex="1">
          <mxGeometry x="600" y="140" width="100" height="50" as="geometry" />
        </mxCell>
        <mxCell id="u4Ys3v4neEJpWNCsn4WD-20" value="类型推导" style="ellipse;whiteSpace=wrap;html=1;" parent="1" vertex="1">
          <mxGeometry x="470" y="220" width="100" height="50" as="geometry" />
        </mxCell>
        <mxCell id="u4Ys3v4neEJpWNCsn4WD-22" value="推断指引" style="ellipse;whiteSpace=wrap;html=1;" parent="1" vertex="1">
          <mxGeometry x="600" y="220" width="100" height="50" as="geometry" />
        </mxCell>
        <mxCell id="u4Ys3v4neEJpWNCsn4WD-23" value="" style="rounded=1;whiteSpace=wrap;html=1;" parent="1" vertex="1">
          <mxGeometry x="80" y="1440" width="280" height="300" as="geometry" />
        </mxCell>
        <mxCell id="u4Ys3v4neEJpWNCsn4WD-24" value="模板与继承" style="rounded=0;whiteSpace=wrap;html=1;fillColor=#d5e8d4;strokeColor=#82b366;" parent="1" vertex="1">
          <mxGeometry x="80" y="1440" width="280" height="40" as="geometry" />
        </mxCell>
        <mxCell id="u4Ys3v4neEJpWNCsn4WD-25" value="非依赖类型" style="ellipse;whiteSpace=wrap;html=1;" parent="1" vertex="1">
          <mxGeometry x="100" y="1500" width="100" height="50" as="geometry" />
        </mxCell>
        <mxCell id="u4Ys3v4neEJpWNCsn4WD-26" value="非受限名称" style="ellipse;whiteSpace=wrap;html=1;" parent="1" vertex="1">
          <mxGeometry x="230" y="1500" width="100" height="50" as="geometry" />
        </mxCell>
        <mxCell id="u4Ys3v4neEJpWNCsn4WD-27" value="CRTP" style="ellipse;whiteSpace=wrap;html=1;" parent="1" vertex="1">
          <mxGeometry x="100" y="1570" width="100" height="50" as="geometry" />
        </mxCell>
        <mxCell id="u4Ys3v4neEJpWNCsn4WD-30" value="&lt;div&gt;类型参数&lt;/div&gt;" style="ellipse;whiteSpace=wrap;html=1;" parent="1" vertex="1">
          <mxGeometry x="100" y="1160" width="100" height="50" as="geometry" />
        </mxCell>
        <mxCell id="u4Ys3v4neEJpWNCsn4WD-31" value="&lt;div&gt;非类型参数&lt;/div&gt;" style="ellipse;whiteSpace=wrap;html=1;" parent="1" vertex="1">
          <mxGeometry x="230" y="1160" width="100" height="50" as="geometry" />
        </mxCell>
        <mxCell id="u4Ys3v4neEJpWNCsn4WD-32" value="&lt;div&gt;模板参数&lt;/div&gt;" style="ellipse;whiteSpace=wrap;html=1;" parent="1" vertex="1">
          <mxGeometry x="100" y="1230" width="100" height="50" as="geometry" />
        </mxCell>
        <mxCell id="u4Ys3v4neEJpWNCsn4WD-33" value="&lt;div&gt;默认值&lt;/div&gt;" style="ellipse;whiteSpace=wrap;html=1;" parent="1" vertex="1">
          <mxGeometry x="230" y="1230" width="100" height="50" as="geometry" />
        </mxCell>
        <mxCell id="u4Ys3v4neEJpWNCsn4WD-34" value="（指向成员对象或成员函数的）&lt;br&gt;成员指针类型" style="ellipse;whiteSpace=wrap;html=1;" parent="1" vertex="1">
          <mxGeometry x="460" y="1310" width="180" height="80" as="geometry" />
        </mxCell>
        <mxCell id="XY0z8-UCiG_QnncWSPfP-1" value="&lt;h1&gt;函数模板重载&lt;/h1&gt;&lt;p&gt;只有主模板才能参与重载决议。&lt;/p&gt;" style="text;html=1;strokeColor=none;fillColor=none;spacing=5;spacingTop=-20;whiteSpace=wrap;overflow=hidden;rounded=0;" vertex="1" parent="1">
          <mxGeometry x="-190" y="230" width="190" height="80" as="geometry" />
        </mxCell>
      </root>
    </mxGraphModel>
  </diagram>
</mxfile>
